<?xml version="1.0" encoding="UTF-8" standalone="no"?>
<!DOCTYPE svg PUBLIC "-//W3C//DTD SVG 1.1//EN"
 "http://www.w3.org/Graphics/SVG/1.1/DTD/svg11.dtd">
<!-- Generated by graphviz version 9.0.0 (20230911.1827)
 -->
<!-- Title: dependency&#45;cruiser output Pages: 1 -->
<svg width="716pt" height="784pt"
 viewBox="0.00 0.00 715.75 784.00" xmlns="http://www.w3.org/2000/svg" xmlns:xlink="http://www.w3.org/1999/xlink">
<g id="graph0" class="graph" transform="scale(1 1) rotate(0) translate(4 780)">
<title>dependency&#45;cruiser output</title>
<polygon fill="white" stroke="none" points="-4,4 -4,-780 711.75,-780 711.75,4 -4,4"/>
<g id="clust1" class="cluster">
<title>cluster_src</title>
<path fill="#ffffff" stroke="black" stroke-width="2" d="M20,-8C20,-8 687.75,-8 687.75,-8 693.75,-8 699.75,-14 699.75,-20 699.75,-20 699.75,-756 699.75,-756 699.75,-762 693.75,-768 687.75,-768 687.75,-768 20,-768 20,-768 14,-768 8,-762 8,-756 8,-756 8,-20 8,-20 8,-14 14,-8 20,-8"/>
<text text-anchor="middle" x="353.88" y="-755.45" font-family="Helvetica,sans-Serif" font-weight="bold" font-size="9.00">src</text>
</g>
<g id="clust2" class="cluster">
<title>cluster_src/app</title>
<path fill="#ffffff" stroke="black" stroke-width="2" d="M49.5,-484C49.5,-484 111.75,-484 111.75,-484 117.75,-484 123.75,-490 123.75,-496 123.75,-496 123.75,-730 123.75,-730 123.75,-736 117.75,-742 111.75,-742 111.75,-742 49.5,-742 49.5,-742 43.5,-742 37.5,-736 37.5,-730 37.5,-730 37.5,-496 37.5,-496 37.5,-490 43.5,-484 49.5,-484"/>
<text text-anchor="middle" x="80.62" y="-729.45" font-family="Helvetica,sans-Serif" font-weight="bold" font-size="9.00">app</text>
</g>
<g id="clust3" class="cluster">
<title>cluster_src/app/works</title>
<path fill="#ffffff" stroke="black" stroke-width="2" d="M57.5,-518C57.5,-518 103.75,-518 103.75,-518 109.75,-518 115.75,-524 115.75,-530 115.75,-530 115.75,-588 115.75,-588 115.75,-594 109.75,-600 103.75,-600 103.75,-600 57.5,-600 57.5,-600 51.5,-600 45.5,-594 45.5,-588 45.5,-588 45.5,-530 45.5,-530 45.5,-524 51.5,-518 57.5,-518"/>
<text text-anchor="middle" x="80.62" y="-587.45" font-family="Helvetica,sans-Serif" font-weight="bold" font-size="9.00">works</text>
</g>
<g id="clust4" class="cluster">
<title>cluster_src/components</title>
<path fill="#ffffff" stroke="black" stroke-width="2" d="M149.25,-358C149.25,-358 309.25,-358 309.25,-358 315.25,-358 321.25,-364 321.25,-370 321.25,-370 321.25,-552 321.25,-552 321.25,-558 315.25,-564 309.25,-564 309.25,-564 149.25,-564 149.25,-564 143.25,-564 137.25,-558 137.25,-552 137.25,-552 137.25,-370 137.25,-370 137.25,-364 143.25,-358 149.25,-358"/>
<text text-anchor="middle" x="229.25" y="-551.45" font-family="Helvetica,sans-Serif" font-weight="bold" font-size="9.00">components</text>
</g>
<g id="clust5" class="cluster">
<title>cluster_src/components/ui</title>
<path fill="#ffffff" stroke="black" stroke-width="2" d="M251.25,-366C251.25,-366 301.25,-366 301.25,-366 307.25,-366 313.25,-372 313.25,-378 313.25,-378 313.25,-526 313.25,-526 313.25,-532 307.25,-538 301.25,-538 301.25,-538 251.25,-538 251.25,-538 245.25,-538 239.25,-532 239.25,-526 239.25,-526 239.25,-378 239.25,-378 239.25,-372 245.25,-366 251.25,-366"/>
<text text-anchor="middle" x="276.25" y="-525.45" font-family="Helvetica,sans-Serif" font-weight="bold" font-size="9.00">ui</text>
</g>
<g id="clust6" class="cluster">
<title>cluster_src/components/works</title>
<path fill="#ffffff" stroke="black" stroke-width="2" d="M157.25,-366C157.25,-366 203.25,-366 203.25,-366 209.25,-366 215.25,-372 215.25,-378 215.25,-378 215.25,-406 215.25,-406 215.25,-412 209.25,-418 203.25,-418 203.25,-418 157.25,-418 157.25,-418 151.25,-418 145.25,-412 145.25,-406 145.25,-406 145.25,-378 145.25,-378 145.25,-372 151.25,-366 157.25,-366"/>
<text text-anchor="middle" x="180.25" y="-405.45" font-family="Helvetica,sans-Serif" font-weight="bold" font-size="9.00">works</text>
</g>
<g id="clust7" class="cluster">
<title>cluster_src/config</title>
<path fill="#ffffff" stroke="black" stroke-width="2" d="M623,-589C623,-589 679.75,-589 679.75,-589 685.75,-589 691.75,-595 691.75,-601 691.75,-601 691.75,-659 691.75,-659 691.75,-665 685.75,-671 679.75,-671 679.75,-671 623,-671 623,-671 617,-671 611,-665 611,-659 611,-659 611,-601 611,-601 611,-595 617,-589 623,-589"/>
<text text-anchor="middle" x="651.38" y="-658.45" font-family="Helvetica,sans-Serif" font-weight="bold" font-size="9.00">config</text>
</g>
<g id="clust8" class="cluster">
<title>cluster_src/lib</title>
<path fill="#ffffff" stroke="black" stroke-width="2" d="M341.25,-449C341.25,-449 511,-449 511,-449 517,-449 523,-455 523,-461 523,-461 523,-519 523,-519 523,-525 517,-531 511,-531 511,-531 341.25,-531 341.25,-531 335.25,-531 329.25,-525 329.25,-519 329.25,-519 329.25,-461 329.25,-461 329.25,-455 335.25,-449 341.25,-449"/>
<text text-anchor="middle" x="426.12" y="-518.45" font-family="Helvetica,sans-Serif" font-weight="bold" font-size="9.00">lib</text>
</g>
<g id="clust9" class="cluster">
<title>cluster_src/stories</title>
<path fill="#ffffff" stroke="black" stroke-width="2" d="M28,-16C28,-16 219.25,-16 219.25,-16 225.25,-16 231.25,-22 231.25,-28 231.25,-28 231.25,-338 231.25,-338 231.25,-344 225.25,-350 219.25,-350 219.25,-350 28,-350 28,-350 22,-350 16,-344 16,-338 16,-338 16,-28 16,-28 16,-22 22,-16 28,-16"/>
<text text-anchor="middle" x="123.62" y="-337.45" font-family="Helvetica,sans-Serif" font-weight="bold" font-size="9.00">stories</text>
</g>
<g id="clust10" class="cluster">
<title>cluster_src/stories/atom</title>
<path fill="#ffffff" stroke="black" stroke-width="2" d="M36,-118C36,-118 211.25,-118 211.25,-118 217.25,-118 223.25,-124 223.25,-130 223.25,-130 223.25,-312 223.25,-312 223.25,-318 217.25,-324 211.25,-324 211.25,-324 36,-324 36,-324 30,-324 24,-318 24,-312 24,-312 24,-130 24,-130 24,-124 30,-118 36,-118"/>
<text text-anchor="middle" x="123.62" y="-311.45" font-family="Helvetica,sans-Serif" font-weight="bold" font-size="9.00">atom</text>
</g>
<g id="clust11" class="cluster">
<title>cluster_src/stories/atom/Avatar</title>
<path fill="#ffffff" stroke="black" stroke-width="2" d="M44,-246C44,-246 117.25,-246 117.25,-246 123.25,-246 129.25,-252 129.25,-258 129.25,-258 129.25,-286 129.25,-286 129.25,-292 123.25,-298 117.25,-298 117.25,-298 44,-298 44,-298 38,-298 32,-292 32,-286 32,-286 32,-258 32,-258 32,-252 38,-246 44,-246"/>
<text text-anchor="middle" x="80.62" y="-285.45" font-family="Helvetica,sans-Serif" font-weight="bold" font-size="9.00">Avatar</text>
</g>
<g id="clust12" class="cluster">
<title>cluster_src/stories/atom/Button</title>
<path fill="#ffffff" stroke="black" stroke-width="2" d="M44,-186C44,-186 117.25,-186 117.25,-186 123.25,-186 129.25,-192 129.25,-198 129.25,-198 129.25,-226 129.25,-226 129.25,-232 123.25,-238 117.25,-238 117.25,-238 44,-238 44,-238 38,-238 32,-232 32,-226 32,-226 32,-198 32,-198 32,-192 38,-186 44,-186"/>
<text text-anchor="middle" x="80.62" y="-225.45" font-family="Helvetica,sans-Serif" font-weight="bold" font-size="9.00">Button</text>
</g>
<g id="clust13" class="cluster">
<title>cluster_src/stories/atom/Icon</title>
<path fill="#ffffff" stroke="black" stroke-width="2" d="M44,-126C44,-126 203.25,-126 203.25,-126 209.25,-126 215.25,-132 215.25,-138 215.25,-138 215.25,-166 215.25,-166 215.25,-172 209.25,-178 203.25,-178 203.25,-178 44,-178 44,-178 38,-178 32,-172 32,-166 32,-166 32,-138 32,-138 32,-132 38,-126 44,-126"/>
<text text-anchor="middle" x="123.62" y="-165.45" font-family="Helvetica,sans-Serif" font-weight="bold" font-size="9.00">Icon</text>
</g>
<g id="clust14" class="cluster">
<title>cluster_src/stories/molecules</title>
<path fill="#ffffff" stroke="black" stroke-width="2" d="M36,-24C36,-24 211.25,-24 211.25,-24 217.25,-24 223.25,-30 223.25,-36 223.25,-36 223.25,-98 223.25,-98 223.25,-104 217.25,-110 211.25,-110 211.25,-110 36,-110 36,-110 30,-110 24,-104 24,-98 24,-98 24,-36 24,-36 24,-30 30,-24 36,-24"/>
<text text-anchor="middle" x="123.62" y="-97.45" font-family="Helvetica,sans-Serif" font-weight="bold" font-size="9.00">molecules</text>
</g>
<g id="clust15" class="cluster">
<title>cluster_src/stories/molecules/HomeLinks</title>
<path fill="#ffffff" stroke="black" stroke-width="2" d="M44,-32C44,-32 203.25,-32 203.25,-32 209.25,-32 215.25,-38 215.25,-44 215.25,-44 215.25,-72 215.25,-72 215.25,-78 209.25,-84 203.25,-84 203.25,-84 44,-84 44,-84 38,-84 32,-78 32,-72 32,-72 32,-44 32,-44 32,-38 38,-32 44,-32"/>
<text text-anchor="middle" x="123.62" y="-71.45" font-family="Helvetica,sans-Serif" font-weight="bold" font-size="9.00">HomeLinks</text>
</g>
<g id="clust16" class="cluster">
<title>cluster_src/styles</title>
<path fill="#ffffff" stroke="black" stroke-width="2" d="M153.38,-652C153.38,-652 207.12,-652 207.12,-652 213.12,-652 219.12,-658 219.12,-664 219.12,-664 219.12,-692 219.12,-692 219.12,-698 213.12,-704 207.12,-704 207.12,-704 153.38,-704 153.38,-704 147.38,-704 141.38,-698 141.38,-692 141.38,-692 141.38,-664 141.38,-664 141.38,-658 147.38,-652 153.38,-652"/>
<text text-anchor="middle" x="180.25" y="-691.45" font-family="Helvetica,sans-Serif" font-weight="bold" font-size="9.00">styles</text>
</g>
<g id="clust17" class="cluster">
<title>cluster_src/types</title>
<path fill="#ffffff" stroke="black" stroke-width="2" d="M439.62,-359C439.62,-359 591,-359 591,-359 597,-359 603,-365 603,-371 603,-371 603,-429 603,-429 603,-435 597,-441 591,-441 591,-441 439.62,-441 439.62,-441 433.62,-441 427.62,-435 427.62,-429 427.62,-429 427.62,-371 427.62,-371 427.62,-365 433.62,-359 439.62,-359"/>
<text text-anchor="middle" x="515.31" y="-428.45" font-family="Helvetica,sans-Serif" font-weight="bold" font-size="9.00">types</text>
</g>
<!-- src/app/layout.tsx -->
<g id="node1" class="node">
<title>src/app/layout.tsx</title>
<g id="a_node1"><a xlink:href="src/app/layout.tsx" xlink:title="layout.tsx">
<path fill="#bbfeff" stroke="black" d="M101.83,-715.88C101.83,-715.88 59.42,-715.88 59.42,-715.88 56.46,-715.88 53.5,-712.92 53.5,-709.96 53.5,-709.96 53.5,-704.04 53.5,-704.04 53.5,-701.08 56.46,-698.12 59.42,-698.12 59.42,-698.12 101.83,-698.12 101.83,-698.12 104.79,-698.12 107.75,-701.08 107.75,-704.04 107.75,-704.04 107.75,-709.96 107.75,-709.96 107.75,-712.92 104.79,-715.88 101.83,-715.88"/>
<text text-anchor="start" x="61.5" y="-703.33" font-family="Helvetica,sans-Serif" font-size="9.00">layout.tsx</text>
</a>
</g>
</g>
<!-- src/config/defaultUrl.ts -->
<g id="node2" class="node">
<title>src/config/defaultUrl.ts</title>
<g id="a_node2"><a xlink:href="src/config/defaultUrl.ts" xlink:title="defaultUrl.ts">
<path fill="#ddfeff" stroke="black" d="M677.83,-644.88C677.83,-644.88 624.92,-644.88 624.92,-644.88 621.96,-644.88 619,-641.92 619,-638.96 619,-638.96 619,-633.04 619,-633.04 619,-630.08 621.96,-627.12 624.92,-627.12 624.92,-627.12 677.83,-627.12 677.83,-627.12 680.79,-627.12 683.75,-630.08 683.75,-633.04 683.75,-633.04 683.75,-638.96 683.75,-638.96 683.75,-641.92 680.79,-644.88 677.83,-644.88"/>
<text text-anchor="start" x="627" y="-632.33" font-family="Helvetica,sans-Serif" font-size="9.00">defaultUrl.ts</text>
</a>
</g>
</g>
<!-- src/app/layout.tsx&#45;&gt;src/config/defaultUrl.ts -->
<g id="edge1" class="edge">
<title>src/app/layout.tsx&#45;&gt;src/config/defaultUrl.ts</title>
<path fill="none" stroke="#000000" stroke-width="2" stroke-opacity="0.200000" d="M99.13,-716.36C109.83,-721.61 123.97,-727.75 137.25,-731 196.98,-745.61 213.76,-741 275.25,-741 275.25,-741 275.25,-741 472,-741 530.39,-741 554.55,-763.59 603,-731 629.37,-713.26 641.71,-676.3 646.96,-654.07"/>
<polygon fill="#000000" fill-opacity="0.200000" stroke="#000000" stroke-width="2" stroke-opacity="0.200000" points="649,-654.55 648.21,-648.24 644.9,-653.67 649,-654.55"/>
</g>
<!-- src/styles/globals.css -->
<g id="node3" class="node">
<title>src/styles/globals.css</title>
<g id="a_node3"><a xlink:href="src/styles/globals.css" xlink:title="globals.css">
<path fill="#ffffcc" stroke="black" d="M205.21,-677.88C205.21,-677.88 155.29,-677.88 155.29,-677.88 152.33,-677.88 149.38,-674.92 149.38,-671.96 149.38,-671.96 149.38,-666.04 149.38,-666.04 149.38,-663.08 152.33,-660.12 155.29,-660.12 155.29,-660.12 205.21,-660.12 205.21,-660.12 208.17,-660.12 211.12,-663.08 211.12,-666.04 211.12,-666.04 211.12,-671.96 211.12,-671.96 211.12,-674.92 208.17,-677.88 205.21,-677.88"/>
<text text-anchor="start" x="157.38" y="-665.33" font-family="Helvetica,sans-Serif" font-size="9.00">globals.css</text>
</a>
</g>
</g>
<!-- src/app/layout.tsx&#45;&gt;src/styles/globals.css -->
<g id="edge2" class="edge">
<title>src/app/layout.tsx&#45;&gt;src/styles/globals.css</title>
<path fill="none" stroke="#000000" stroke-width="2" stroke-opacity="0.200000" d="M108.03,-699.33C114.99,-697.14 122.46,-694.62 129.25,-692 136.98,-689.02 145.2,-685.42 152.7,-681.97"/>
<polygon fill="#000000" fill-opacity="0.200000" stroke="#000000" stroke-width="2" stroke-opacity="0.200000" points="153.22,-684.04 157.76,-679.59 151.43,-680.24 153.22,-684.04"/>
</g>
<!-- src/app/manifest.ts -->
<g id="node4" class="node">
<title>src/app/manifest.ts</title>
<g id="a_node4"><a xlink:href="src/app/manifest.ts" xlink:title="no&#45;orphans">
<path fill="#ccffcc" stroke="orange" d="M104.46,-655.88C104.46,-655.88 56.79,-655.88 56.79,-655.88 53.83,-655.88 50.88,-652.92 50.88,-649.96 50.88,-649.96 50.88,-644.04 50.88,-644.04 50.88,-641.08 53.83,-638.12 56.79,-638.12 56.79,-638.12 104.46,-638.12 104.46,-638.12 107.42,-638.12 110.38,-641.08 110.38,-644.04 110.38,-644.04 110.38,-649.96 110.38,-649.96 110.38,-652.92 107.42,-655.88 104.46,-655.88"/>
<text text-anchor="start" x="58.88" y="-643.33" font-family="Helvetica,sans-Serif" font-size="9.00" fill="orange">manifest.ts</text>
</a>
</g>
</g>
<!-- src/app/page.tsx -->
<g id="node5" class="node">
<title>src/app/page.tsx</title>
<g id="a_node5"><a xlink:href="src/app/page.tsx" xlink:title="page.tsx">
<path fill="#bbfeff" stroke="black" d="M101.71,-509.88C101.71,-509.88 59.54,-509.88 59.54,-509.88 56.58,-509.88 53.62,-506.92 53.62,-503.96 53.62,-503.96 53.62,-498.04 53.62,-498.04 53.62,-495.08 56.58,-492.12 59.54,-492.12 59.54,-492.12 101.71,-492.12 101.71,-492.12 104.67,-492.12 107.62,-495.08 107.62,-498.04 107.62,-498.04 107.62,-503.96 107.62,-503.96 107.62,-506.92 104.67,-509.88 101.71,-509.88"/>
<text text-anchor="start" x="63.38" y="-497.32" font-family="Helvetica,sans-Serif" font-size="9.00">page.tsx</text>
</a>
</g>
</g>
<!-- src/app/page.tsx&#45;&gt;src/config/defaultUrl.ts -->
<g id="edge6" class="edge">
<title>src/app/page.tsx&#45;&gt;src/config/defaultUrl.ts</title>
<path fill="none" stroke="#000000" stroke-width="2" stroke-opacity="0.200000" d="M107.71,-502.81C115.85,-504.73 124.05,-508.34 129.25,-515 142.4,-531.82 122.17,-691.89 137.25,-707 148.09,-717.86 259.9,-713 275.25,-713 275.25,-713 275.25,-713 472,-713 534.5,-713 599.98,-672.66 631.37,-650.38"/>
<polygon fill="#000000" fill-opacity="0.200000" stroke="#000000" stroke-width="2" stroke-opacity="0.200000" points="632.53,-652.14 636.15,-646.91 630.06,-648.74 632.53,-652.14"/>
</g>
<!-- src/components/ui/button.tsx -->
<g id="node6" class="node">
<title>src/components/ui/button.tsx</title>
<g id="a_node6"><a xlink:href="src/components/ui/button.tsx" xlink:title="button.tsx">
<path fill="#bbfeff" stroke="black" d="M297.83,-421.88C297.83,-421.88 254.67,-421.88 254.67,-421.88 251.71,-421.88 248.75,-418.92 248.75,-415.96 248.75,-415.96 248.75,-410.04 248.75,-410.04 248.75,-407.08 251.71,-404.12 254.67,-404.12 254.67,-404.12 297.83,-404.12 297.83,-404.12 300.79,-404.12 303.75,-407.08 303.75,-410.04 303.75,-410.04 303.75,-415.96 303.75,-415.96 303.75,-418.92 300.79,-421.88 297.83,-421.88"/>
<text text-anchor="start" x="256.75" y="-409.32" font-family="Helvetica,sans-Serif" font-size="9.00">button.tsx</text>
</a>
</g>
</g>
<!-- src/app/page.tsx&#45;&gt;src/components/ui/button.tsx -->
<g id="edge3" class="edge">
<title>src/app/page.tsx&#45;&gt;src/components/ui/button.tsx</title>
<path fill="none" stroke="#000000" stroke-width="2" stroke-opacity="0.200000" d="M92.34,-491.68C103,-482.91 120.19,-470.1 137.25,-463 176.52,-446.66 197.65,-471.08 231.25,-445 237.85,-439.88 233.21,-433.77 239.25,-428 239.83,-427.45 240.43,-426.91 241.05,-426.4"/>
<polygon fill="#000000" fill-opacity="0.200000" stroke="#000000" stroke-width="2" stroke-opacity="0.200000" points="241.97,-428.31 245.8,-423.24 239.64,-424.82 241.97,-428.31"/>
</g>
<!-- src/components/ui/card.tsx -->
<g id="node7" class="node">
<title>src/components/ui/card.tsx</title>
<g id="a_node7"><a xlink:href="src/components/ui/card.tsx" xlink:title="card.tsx">
<path fill="#bbfeff" stroke="black" d="M297.33,-481.88C297.33,-481.88 255.17,-481.88 255.17,-481.88 252.21,-481.88 249.25,-478.92 249.25,-475.96 249.25,-475.96 249.25,-470.04 249.25,-470.04 249.25,-467.08 252.21,-464.12 255.17,-464.12 255.17,-464.12 297.33,-464.12 297.33,-464.12 300.29,-464.12 303.25,-467.08 303.25,-470.04 303.25,-470.04 303.25,-475.96 303.25,-475.96 303.25,-478.92 300.29,-481.88 297.33,-481.88"/>
<text text-anchor="start" x="260.5" y="-469.32" font-family="Helvetica,sans-Serif" font-size="9.00">card.tsx</text>
</a>
</g>
</g>
<!-- src/app/page.tsx&#45;&gt;src/components/ui/card.tsx -->
<g id="edge4" class="edge">
<title>src/app/page.tsx&#45;&gt;src/components/ui/card.tsx</title>
<path fill="none" stroke="#000000" stroke-width="2" stroke-opacity="0.200000" d="M108.03,-499.46C138.07,-497.4 188.51,-493.06 231.25,-485 234.22,-484.44 237.28,-483.78 240.34,-483.06"/>
<polygon fill="#000000" fill-opacity="0.200000" stroke="#000000" stroke-width="2" stroke-opacity="0.200000" points="240.64,-485.15 245.95,-481.66 239.62,-481.08 240.64,-485.15"/>
</g>
<!-- src/components/ui/drawer.tsx -->
<g id="node8" class="node">
<title>src/components/ui/drawer.tsx</title>
<g id="a_node8"><a xlink:href="src/components/ui/drawer.tsx" xlink:title="drawer.tsx">
<path fill="#bbfeff" stroke="black" d="M299.33,-451.88C299.33,-451.88 253.17,-451.88 253.17,-451.88 250.21,-451.88 247.25,-448.92 247.25,-445.96 247.25,-445.96 247.25,-440.04 247.25,-440.04 247.25,-437.08 250.21,-434.12 253.17,-434.12 253.17,-434.12 299.33,-434.12 299.33,-434.12 302.29,-434.12 305.25,-437.08 305.25,-440.04 305.25,-440.04 305.25,-445.96 305.25,-445.96 305.25,-448.92 302.29,-451.88 299.33,-451.88"/>
<text text-anchor="start" x="255.25" y="-439.32" font-family="Helvetica,sans-Serif" font-size="9.00">drawer.tsx</text>
</a>
</g>
</g>
<!-- src/app/page.tsx&#45;&gt;src/components/ui/drawer.tsx -->
<g id="edge5" class="edge">
<title>src/app/page.tsx&#45;&gt;src/components/ui/drawer.tsx</title>
<path fill="none" stroke="#000000" stroke-width="2" stroke-opacity="0.200000" d="M107.92,-493.83C117.18,-491.33 127.67,-488.51 137.25,-486 178.96,-475.05 190.85,-477.06 231.25,-462 234.97,-460.61 235.64,-459.65 239.25,-458 240.82,-457.28 242.43,-456.56 244.07,-455.84"/>
<polygon fill="#000000" fill-opacity="0.200000" stroke="#000000" stroke-width="2" stroke-opacity="0.200000" points="244.84,-457.79 249.51,-453.49 243.17,-453.93 244.84,-457.79"/>
</g>
<!-- src/lib/getMicrocms.ts -->
<g id="node9" class="node">
<title>src/lib/getMicrocms.ts</title>
<g id="a_node9"><a xlink:href="src/lib/getMicrocms.ts" xlink:title="getMicrocms.ts">
<path fill="#ddfeff" stroke="black" d="M408.08,-504.88C408.08,-504.88 343.17,-504.88 343.17,-504.88 340.21,-504.88 337.25,-501.92 337.25,-498.96 337.25,-498.96 337.25,-493.04 337.25,-493.04 337.25,-490.08 340.21,-487.12 343.17,-487.12 343.17,-487.12 408.08,-487.12 408.08,-487.12 411.04,-487.12 414,-490.08 414,-493.04 414,-493.04 414,-498.96 414,-498.96 414,-501.92 411.04,-504.88 408.08,-504.88"/>
<text text-anchor="start" x="345.25" y="-492.32" font-family="Helvetica,sans-Serif" font-size="9.00">getMicrocms.ts</text>
</a>
</g>
</g>
<!-- src/app/page.tsx&#45;&gt;src/lib/getMicrocms.ts -->
<g id="edge7" class="edge">
<title>src/app/page.tsx&#45;&gt;src/lib/getMicrocms.ts</title>
<path fill="none" stroke="#000000" stroke-width="2" stroke-opacity="0.200000" d="M108.07,-508.56C145.98,-519.25 213.97,-537.84 239.25,-541 275.41,-545.52 287.02,-553.5 321.25,-541 337.31,-535.13 351.88,-522.06 361.73,-511.51"/>
<polygon fill="#000000" fill-opacity="0.200000" stroke="#000000" stroke-width="2" stroke-opacity="0.200000" points="363.05,-513.19 365.47,-507.31 359.91,-510.39 363.05,-513.19"/>
</g>
<!-- src/stories/atom/Icon/index.tsx -->
<g id="node10" class="node">
<title>src/stories/atom/Icon/index.tsx</title>
<g id="a_node10"><a xlink:href="src/stories/atom/Icon/index.tsx" xlink:title="index.tsx">
<path fill="#bbfeff" stroke="black" d="M201.33,-151.88C201.33,-151.88 159.17,-151.88 159.17,-151.88 156.21,-151.88 153.25,-148.92 153.25,-145.96 153.25,-145.96 153.25,-140.04 153.25,-140.04 153.25,-137.08 156.21,-134.12 159.17,-134.12 159.17,-134.12 201.33,-134.12 201.33,-134.12 204.29,-134.12 207.25,-137.08 207.25,-140.04 207.25,-140.04 207.25,-145.96 207.25,-145.96 207.25,-148.92 204.29,-151.88 201.33,-151.88"/>
<text text-anchor="start" x="162.25" y="-139.32" font-family="Helvetica,sans-Serif" font-size="9.00">index.tsx</text>
</a>
</g>
</g>
<!-- src/app/page.tsx&#45;&gt;src/stories/atom/Icon/index.tsx -->
<g id="edge8" class="edge">
<title>src/app/page.tsx&#45;&gt;src/stories/atom/Icon/index.tsx</title>
<path fill="none" stroke="#000000" stroke-width="2" stroke-opacity="0.200000" d="M84.14,-491.79C97.14,-444.11 156.87,-225.06 174.4,-160.78"/>
<polygon fill="#000000" fill-opacity="0.200000" stroke="#000000" stroke-width="2" stroke-opacity="0.200000" points="176.41,-161.41 175.96,-155.07 172.35,-160.3 176.41,-161.41"/>
</g>
<!-- src/stories/molecules/HomeLinks/index.tsx -->
<g id="node11" class="node">
<title>src/stories/molecules/HomeLinks/index.tsx</title>
<g id="a_node11"><a xlink:href="src/stories/molecules/HomeLinks/index.tsx" xlink:title="index.tsx">
<path fill="#bbfeff" stroke="black" d="M201.33,-57.88C201.33,-57.88 159.17,-57.88 159.17,-57.88 156.21,-57.88 153.25,-54.92 153.25,-51.96 153.25,-51.96 153.25,-46.04 153.25,-46.04 153.25,-43.08 156.21,-40.12 159.17,-40.12 159.17,-40.12 201.33,-40.12 201.33,-40.12 204.29,-40.12 207.25,-43.08 207.25,-46.04 207.25,-46.04 207.25,-51.96 207.25,-51.96 207.25,-54.92 204.29,-57.88 201.33,-57.88"/>
<text text-anchor="start" x="162.25" y="-45.33" font-family="Helvetica,sans-Serif" font-size="9.00">index.tsx</text>
</a>
</g>
</g>
<!-- src/app/page.tsx&#45;&gt;src/stories/molecules/HomeLinks/index.tsx -->
<g id="edge9" class="edge">
<title>src/app/page.tsx&#45;&gt;src/stories/molecules/HomeLinks/index.tsx</title>
<path fill="none" stroke="#000000" stroke-width="2" stroke-opacity="0.200000" d="M84.43,-491.95C92.98,-463.92 118.74,-375.94 129.25,-301 134.75,-261.79 126.29,-161.05 137.25,-123 143.46,-101.44 157.09,-79.42 167.14,-65.07"/>
<polygon fill="#000000" fill-opacity="0.200000" stroke="#000000" stroke-width="2" stroke-opacity="0.200000" points="168.71,-66.49 170.52,-60.39 165.3,-64.03 168.71,-66.49"/>
</g>
<!-- src/lib/utils.ts -->
<g id="node18" class="node">
<title>src/lib/utils.ts</title>
<g id="a_node18"><a xlink:href="src/lib/utils.ts" xlink:title="utils.ts">
<path fill="#ddfeff" stroke="black" d="M396.71,-474.88C396.71,-474.88 354.54,-474.88 354.54,-474.88 351.58,-474.88 348.62,-471.92 348.62,-468.96 348.62,-468.96 348.62,-463.04 348.62,-463.04 348.62,-460.08 351.58,-457.12 354.54,-457.12 354.54,-457.12 396.71,-457.12 396.71,-457.12 399.67,-457.12 402.62,-460.08 402.62,-463.04 402.62,-463.04 402.62,-468.96 402.62,-468.96 402.62,-471.92 399.67,-474.88 396.71,-474.88"/>
<text text-anchor="start" x="362.88" y="-462.32" font-family="Helvetica,sans-Serif" font-size="9.00">utils.ts</text>
</a>
</g>
</g>
<!-- src/components/ui/button.tsx&#45;&gt;src/lib/utils.ts -->
<g id="edge19" class="edge">
<title>src/components/ui/button.tsx&#45;&gt;src/lib/utils.ts</title>
<path fill="none" stroke="#000000" stroke-width="2" stroke-opacity="0.200000" d="M303.82,-420.67C309.7,-422.74 315.79,-425.2 321.25,-428 333.83,-434.45 346.78,-443.6 356.77,-451.3"/>
<polygon fill="#000000" fill-opacity="0.200000" stroke="#000000" stroke-width="2" stroke-opacity="0.200000" points="355.4,-452.89 361.41,-454.96 358,-449.59 355.4,-452.89"/>
</g>
<!-- src/components/ui/card.tsx&#45;&gt;src/lib/utils.ts -->
<g id="edge20" class="edge">
<title>src/components/ui/card.tsx&#45;&gt;src/lib/utils.ts</title>
<path fill="none" stroke="#000000" stroke-width="2" stroke-opacity="0.200000" d="M303.6,-471.11C314.64,-470.31 327.64,-469.38 339.48,-468.53"/>
<polygon fill="#000000" fill-opacity="0.200000" stroke="#000000" stroke-width="2" stroke-opacity="0.200000" points="339.4,-470.64 345.23,-468.11 339.1,-466.45 339.4,-470.64"/>
</g>
<!-- src/components/ui/drawer.tsx&#45;&gt;src/lib/utils.ts -->
<g id="edge21" class="edge">
<title>src/components/ui/drawer.tsx&#45;&gt;src/lib/utils.ts</title>
<path fill="none" stroke="#000000" stroke-width="2" stroke-opacity="0.200000" d="M305.68,-449.71C316.31,-452.23 328.51,-455.11 339.66,-457.74"/>
<polygon fill="#000000" fill-opacity="0.200000" stroke="#000000" stroke-width="2" stroke-opacity="0.200000" points="339.06,-459.76 345.38,-459.09 340.03,-455.67 339.06,-459.76"/>
</g>
<!-- src/types/worksType.ts -->
<g id="node21" class="node">
<title>src/types/worksType.ts</title>
<g id="a_node21"><a xlink:href="src/types/worksType.ts" xlink:title="worksType.ts">
<path fill="#ddfeff" stroke="black" d="M499.71,-414.88C499.71,-414.88 442.29,-414.88 442.29,-414.88 439.33,-414.88 436.38,-411.92 436.38,-408.96 436.38,-408.96 436.38,-403.04 436.38,-403.04 436.38,-400.08 439.33,-397.12 442.29,-397.12 442.29,-397.12 499.71,-397.12 499.71,-397.12 502.67,-397.12 505.62,-400.08 505.62,-403.04 505.62,-403.04 505.62,-408.96 505.62,-408.96 505.62,-411.92 502.67,-414.88 499.71,-414.88"/>
<text text-anchor="start" x="444.38" y="-402.32" font-family="Helvetica,sans-Serif" font-size="9.00">worksType.ts</text>
</a>
</g>
</g>
<!-- src/lib/getMicrocms.ts&#45;&gt;src/types/worksType.ts -->
<g id="edge31" class="edge">
<title>src/lib/getMicrocms.ts&#45;&gt;src/types/worksType.ts</title>
<path fill="none" stroke="#000000" stroke-width="2" stroke-opacity="0.200000" d="M406.65,-486.71C409.34,-485.09 411.85,-483.2 414,-481 425.58,-469.11 417.79,-459.8 427,-446 433.37,-436.46 442.44,-427.58 450.62,-420.62"/>
<polygon fill="#000000" fill-opacity="0.200000" stroke="#000000" stroke-width="2" stroke-opacity="0.200000" points="451.52,-422.59 454.85,-417.17 448.87,-419.34 451.52,-422.59"/>
</g>
<!-- src/lib/microcmsClient.ts -->
<g id="node22" class="node">
<title>src/lib/microcmsClient.ts</title>
<g id="a_node22"><a xlink:href="src/lib/microcmsClient.ts" xlink:title="microcmsClient.ts">
<path fill="#ddfeff" stroke="black" d="M509.08,-504.88C509.08,-504.88 432.92,-504.88 432.92,-504.88 429.96,-504.88 427,-501.92 427,-498.96 427,-498.96 427,-493.04 427,-493.04 427,-490.08 429.96,-487.12 432.92,-487.12 432.92,-487.12 509.08,-487.12 509.08,-487.12 512.04,-487.12 515,-490.08 515,-493.04 515,-493.04 515,-498.96 515,-498.96 515,-501.92 512.04,-504.88 509.08,-504.88"/>
<text text-anchor="start" x="435" y="-492.32" font-family="Helvetica,sans-Serif" font-size="9.00">microcmsClient.ts</text>
</a>
</g>
</g>
<!-- src/lib/getMicrocms.ts&#45;&gt;src/lib/microcmsClient.ts -->
<g id="edge29" class="edge">
<title>src/lib/getMicrocms.ts&#45;&gt;src/lib/microcmsClient.ts</title>
<path fill="none" stroke="#000000" stroke-width="2" stroke-opacity="0.200000" d="M414.34,-496C415.47,-496 416.62,-496 417.77,-496"/>
<polygon fill="#000000" fill-opacity="0.200000" stroke="#000000" stroke-width="2" stroke-opacity="0.200000" points="417.61,-498.1 423.61,-496 417.61,-493.9 417.61,-498.1"/>
</g>
<!-- src/types/profileType.ts -->
<g id="node23" class="node">
<title>src/types/profileType.ts</title>
<g id="a_node23"><a xlink:href="src/types/profileType.ts" xlink:title="profileType.ts">
<path fill="#ddfeff" stroke="black" d="M500.46,-384.88C500.46,-384.88 441.54,-384.88 441.54,-384.88 438.58,-384.88 435.62,-381.92 435.62,-378.96 435.62,-378.96 435.62,-373.04 435.62,-373.04 435.62,-370.08 438.58,-367.12 441.54,-367.12 441.54,-367.12 500.46,-367.12 500.46,-367.12 503.42,-367.12 506.38,-370.08 506.38,-373.04 506.38,-373.04 506.38,-378.96 506.38,-378.96 506.38,-381.92 503.42,-384.88 500.46,-384.88"/>
<text text-anchor="start" x="443.62" y="-372.32" font-family="Helvetica,sans-Serif" font-size="9.00">profileType.ts</text>
</a>
</g>
</g>
<!-- src/lib/getMicrocms.ts&#45;&gt;src/types/profileType.ts -->
<g id="edge30" class="edge">
<title>src/lib/getMicrocms.ts&#45;&gt;src/types/profileType.ts</title>
<path fill="none" stroke="#000000" stroke-width="2" stroke-opacity="0.200000" d="M407.86,-486.68C410.17,-485.08 412.27,-483.2 414,-481 438.98,-449.23 401.3,-422.19 427,-391 427.43,-390.47 427.89,-389.97 428.36,-389.48"/>
<polygon fill="#000000" fill-opacity="0.200000" stroke="#000000" stroke-width="2" stroke-opacity="0.200000" points="429.5,-391.25 432.95,-385.91 426.92,-387.93 429.5,-391.25"/>
</g>
<!-- src/components/ui/avatar.tsx -->
<g id="node17" class="node">
<title>src/components/ui/avatar.tsx</title>
<g id="a_node17"><a xlink:href="src/components/ui/avatar.tsx" xlink:title="avatar.tsx">
<path fill="#bbfeff" stroke="black" d="M297.83,-391.88C297.83,-391.88 254.67,-391.88 254.67,-391.88 251.71,-391.88 248.75,-388.92 248.75,-385.96 248.75,-385.96 248.75,-380.04 248.75,-380.04 248.75,-377.08 251.71,-374.12 254.67,-374.12 254.67,-374.12 297.83,-374.12 297.83,-374.12 300.79,-374.12 303.75,-377.08 303.75,-380.04 303.75,-380.04 303.75,-385.96 303.75,-385.96 303.75,-388.92 300.79,-391.88 297.83,-391.88"/>
<text text-anchor="start" x="256.75" y="-379.32" font-family="Helvetica,sans-Serif" font-size="9.00">avatar.tsx</text>
</a>
</g>
</g>
<!-- src/stories/atom/Icon/index.tsx&#45;&gt;src/components/ui/avatar.tsx -->
<g id="edge35" class="edge">
<title>src/stories/atom/Icon/index.tsx&#45;&gt;src/components/ui/avatar.tsx</title>
<path fill="none" stroke="#000000" stroke-width="2" stroke-opacity="0.200000" d="M184.82,-152.12C198.78,-187.76 249.81,-318.05 268.41,-365.54"/>
<polygon fill="#000000" fill-opacity="0.200000" stroke="#000000" stroke-width="2" stroke-opacity="0.200000" points="266.43,-366.24 270.57,-371.06 270.34,-364.7 266.43,-366.24"/>
</g>
<!-- src/stories/molecules/HomeLinks/index.tsx&#45;&gt;src/components/ui/button.tsx -->
<g id="edge37" class="edge">
<title>src/stories/molecules/HomeLinks/index.tsx&#45;&gt;src/components/ui/button.tsx</title>
<path fill="none" stroke="#000000" stroke-width="2" stroke-opacity="0.200000" d="M189.99,-58.11C201.92,-71.22 222.79,-96.73 231.25,-123 240.62,-152.1 221.93,-372.81 239.25,-398 239.9,-398.94 240.62,-399.82 241.39,-400.65"/>
<polygon fill="#000000" fill-opacity="0.200000" stroke="#000000" stroke-width="2" stroke-opacity="0.200000" points="239.87,-402.13 245.91,-404.13 242.43,-398.8 239.87,-402.13"/>
</g>
<!-- src/config/iconData.ts -->
<g id="node20" class="node">
<title>src/config/iconData.ts</title>
<g id="a_node20"><a xlink:href="src/config/iconData.ts" xlink:title="iconData.ts">
<path fill="#ddfeff" stroke="black" d="M676.33,-614.88C676.33,-614.88 626.42,-614.88 626.42,-614.88 623.46,-614.88 620.5,-611.92 620.5,-608.96 620.5,-608.96 620.5,-603.04 620.5,-603.04 620.5,-600.08 623.46,-597.12 626.42,-597.12 626.42,-597.12 676.33,-597.12 676.33,-597.12 679.29,-597.12 682.25,-600.08 682.25,-603.04 682.25,-603.04 682.25,-608.96 682.25,-608.96 682.25,-611.92 679.29,-614.88 676.33,-614.88"/>
<text text-anchor="start" x="628.5" y="-602.33" font-family="Helvetica,sans-Serif" font-size="9.00">iconData.ts</text>
</a>
</g>
</g>
<!-- src/stories/molecules/HomeLinks/index.tsx&#45;&gt;src/config/iconData.ts -->
<g id="edge38" class="edge">
<title>src/stories/molecules/HomeLinks/index.tsx&#45;&gt;src/config/iconData.ts</title>
<path fill="none" stroke="#000000" stroke-width="2" stroke-opacity="0.200000" d="M196.66,-58.32C228.63,-76.73 304.99,-116 374.62,-116 374.62,-116 374.62,-116 472,-116 584.28,-116 563.64,-226.85 603,-332 637.46,-424.05 647.07,-543 649.56,-587.83"/>
<polygon fill="#000000" fill-opacity="0.200000" stroke="#000000" stroke-width="2" stroke-opacity="0.200000" points="647.46,-587.78 649.86,-593.67 651.65,-587.57 647.46,-587.78"/>
</g>
<!-- src/stories/molecules/HomeLinks/index.tsx&#45;&gt;src/types/profileType.ts -->
<g id="edge39" class="edge">
<title>src/stories/molecules/HomeLinks/index.tsx&#45;&gt;src/types/profileType.ts</title>
<path fill="none" stroke="#000000" stroke-width="2" stroke-opacity="0.200000" d="M188.62,-58.31C199.5,-71.99 220.59,-98.26 239.25,-120 319.19,-213.14 419.18,-321.39 455.76,-360.73"/>
<polygon fill="#000000" fill-opacity="0.200000" stroke="#000000" stroke-width="2" stroke-opacity="0.200000" points="453.77,-361.67 459.39,-364.63 456.84,-358.81 453.77,-361.67"/>
</g>
<!-- src/app/robots.ts -->
<g id="node12" class="node">
<title>src/app/robots.ts</title>
<g id="a_node12"><a xlink:href="src/app/robots.ts" xlink:title="robots.ts">
<path fill="#ddfeff" stroke="black" d="M101.71,-625.88C101.71,-625.88 59.54,-625.88 59.54,-625.88 56.58,-625.88 53.62,-622.92 53.62,-619.96 53.62,-619.96 53.62,-614.04 53.62,-614.04 53.62,-611.08 56.58,-608.12 59.54,-608.12 59.54,-608.12 101.71,-608.12 101.71,-608.12 104.67,-608.12 107.62,-611.08 107.62,-614.04 107.62,-614.04 107.62,-619.96 107.62,-619.96 107.62,-622.92 104.67,-625.88 101.71,-625.88"/>
<text text-anchor="start" x="63.38" y="-613.33" font-family="Helvetica,sans-Serif" font-size="9.00">robots.ts</text>
</a>
</g>
</g>
<!-- src/app/robots.ts&#45;&gt;src/config/defaultUrl.ts -->
<g id="edge10" class="edge">
<title>src/app/robots.ts&#45;&gt;src/config/defaultUrl.ts</title>
<path fill="none" stroke="#000000" stroke-width="2" stroke-opacity="0.200000" d="M107.9,-619.66C145.11,-623.2 215.3,-629 275.25,-629 275.25,-629 275.25,-629 472,-629 519.43,-629 573.89,-631.5 610.03,-633.51"/>
<polygon fill="#000000" fill-opacity="0.200000" stroke="#000000" stroke-width="2" stroke-opacity="0.200000" points="609.68,-635.6 615.79,-633.84 609.92,-631.4 609.68,-635.6"/>
</g>
<!-- src/app/sitemap.ts -->
<g id="node13" class="node">
<title>src/app/sitemap.ts</title>
<g id="a_node13"><a xlink:href="src/app/sitemap.ts" xlink:title="sitemap.ts">
<path fill="#ddfeff" stroke="black" d="M103.33,-685.88C103.33,-685.88 57.92,-685.88 57.92,-685.88 54.96,-685.88 52,-682.92 52,-679.96 52,-679.96 52,-674.04 52,-674.04 52,-671.08 54.96,-668.12 57.92,-668.12 57.92,-668.12 103.33,-668.12 103.33,-668.12 106.29,-668.12 109.25,-671.08 109.25,-674.04 109.25,-674.04 109.25,-679.96 109.25,-679.96 109.25,-682.92 106.29,-685.88 103.33,-685.88"/>
<text text-anchor="start" x="60" y="-673.33" font-family="Helvetica,sans-Serif" font-size="9.00">sitemap.ts</text>
</a>
</g>
</g>
<!-- src/app/sitemap.ts&#45;&gt;src/config/defaultUrl.ts -->
<g id="edge11" class="edge">
<title>src/app/sitemap.ts&#45;&gt;src/config/defaultUrl.ts</title>
<path fill="none" stroke="#000000" stroke-width="2" stroke-opacity="0.200000" d="M109.45,-671.85C116.41,-669.63 123.51,-666.48 129.25,-662 134.6,-657.83 131.4,-652.44 137.25,-649 190.18,-617.9 213.86,-643 275.25,-643 275.25,-643 275.25,-643 472,-643 519.43,-643 573.89,-640.5 610.03,-638.49"/>
<polygon fill="#000000" fill-opacity="0.200000" stroke="#000000" stroke-width="2" stroke-opacity="0.200000" points="609.92,-640.6 615.79,-638.16 609.68,-636.4 609.92,-640.6"/>
</g>
<!-- src/app/works/layout.tsx -->
<g id="node14" class="node">
<title>src/app/works/layout.tsx</title>
<g id="a_node14"><a xlink:href="src/app/works/layout.tsx" xlink:title="layout.tsx">
<path fill="#bbfeff" stroke="black" d="M101.83,-573.88C101.83,-573.88 59.42,-573.88 59.42,-573.88 56.46,-573.88 53.5,-570.92 53.5,-567.96 53.5,-567.96 53.5,-562.04 53.5,-562.04 53.5,-559.08 56.46,-556.12 59.42,-556.12 59.42,-556.12 101.83,-556.12 101.83,-556.12 104.79,-556.12 107.75,-559.08 107.75,-562.04 107.75,-562.04 107.75,-567.96 107.75,-567.96 107.75,-570.92 104.79,-573.88 101.83,-573.88"/>
<text text-anchor="start" x="61.5" y="-561.33" font-family="Helvetica,sans-Serif" font-size="9.00">layout.tsx</text>
</a>
</g>
</g>
<!-- src/app/works/layout.tsx&#45;&gt;src/config/defaultUrl.ts -->
<g id="edge12" class="edge">
<title>src/app/works/layout.tsx&#45;&gt;src/config/defaultUrl.ts</title>
<path fill="none" stroke="#000000" stroke-width="2" stroke-opacity="0.200000" d="M108.11,-566.39C116.08,-568.18 124.07,-571.61 129.25,-578 148.73,-602.04 115.54,-694.96 137.25,-717 158.83,-738.9 244.5,-727 275.25,-727 275.25,-727 275.25,-727 472,-727 501.2,-727 578.25,-732.48 603,-717 625.91,-702.67 639.02,-672.91 645.41,-653.73"/>
<polygon fill="#000000" fill-opacity="0.200000" stroke="#000000" stroke-width="2" stroke-opacity="0.200000" points="647.36,-654.52 647.13,-648.17 643.35,-653.28 647.36,-654.52"/>
</g>
<!-- src/app/works/layout.tsx&#45;&gt;src/styles/globals.css -->
<g id="edge13" class="edge">
<title>src/app/works/layout.tsx&#45;&gt;src/styles/globals.css</title>
<path fill="none" stroke="#000000" stroke-width="2" stroke-opacity="0.200000" d="M108.12,-566.94C115.89,-568.78 123.77,-572.1 129.25,-578 141.88,-591.6 129.25,-602.25 137.25,-619 143.4,-631.88 153.66,-644.18 162.5,-653.36"/>
<polygon fill="#000000" fill-opacity="0.200000" stroke="#000000" stroke-width="2" stroke-opacity="0.200000" points="161.02,-654.85 166.75,-657.6 163.98,-651.87 161.02,-654.85"/>
</g>
<!-- src/app/works/page.tsx -->
<g id="node15" class="node">
<title>src/app/works/page.tsx</title>
<g id="a_node15"><a xlink:href="src/app/works/page.tsx" xlink:title="page.tsx">
<path fill="#bbfeff" stroke="black" d="M101.71,-543.88C101.71,-543.88 59.54,-543.88 59.54,-543.88 56.58,-543.88 53.62,-540.92 53.62,-537.96 53.62,-537.96 53.62,-532.04 53.62,-532.04 53.62,-529.08 56.58,-526.12 59.54,-526.12 59.54,-526.12 101.71,-526.12 101.71,-526.12 104.67,-526.12 107.62,-529.08 107.62,-532.04 107.62,-532.04 107.62,-537.96 107.62,-537.96 107.62,-540.92 104.67,-543.88 101.71,-543.88"/>
<text text-anchor="start" x="63.38" y="-531.33" font-family="Helvetica,sans-Serif" font-size="9.00">page.tsx</text>
</a>
</g>
</g>
<!-- src/app/works/page.tsx&#45;&gt;src/components/ui/button.tsx -->
<g id="edge14" class="edge">
<title>src/app/works/page.tsx&#45;&gt;src/components/ui/button.tsx</title>
<path fill="none" stroke="#000000" stroke-width="2" stroke-opacity="0.200000" d="M107.81,-529.33C114.91,-527.4 122.5,-524.96 129.25,-522 178.26,-500.5 199.48,-501.07 231.25,-458 239.44,-446.89 230.17,-438.39 239.25,-428 239.9,-427.26 240.58,-426.56 241.31,-425.89"/>
<polygon fill="#000000" fill-opacity="0.200000" stroke="#000000" stroke-width="2" stroke-opacity="0.200000" points="242.44,-427.66 246.12,-422.48 240.01,-424.23 242.44,-427.66"/>
</g>
<!-- src/app/works/page.tsx&#45;&gt;src/components/ui/card.tsx -->
<g id="edge15" class="edge">
<title>src/app/works/page.tsx&#45;&gt;src/components/ui/card.tsx</title>
<path fill="none" stroke="#000000" stroke-width="2" stroke-opacity="0.200000" d="M107.68,-537.98C115.62,-540.13 123.71,-543.79 129.25,-550 141.62,-563.84 122.92,-579.2 137.25,-591 153.37,-604.28 215.92,-605.19 231.25,-591 248.1,-575.41 225.78,-506.59 239.25,-488 240.02,-486.94 240.88,-485.95 241.81,-485.03"/>
<polygon fill="#000000" fill-opacity="0.200000" stroke="#000000" stroke-width="2" stroke-opacity="0.200000" points="242.75,-486.95 246.36,-481.71 240.27,-483.55 242.75,-486.95"/>
</g>
<!-- src/app/works/page.tsx&#45;&gt;src/lib/getMicrocms.ts -->
<g id="edge17" class="edge">
<title>src/app/works/page.tsx&#45;&gt;src/lib/getMicrocms.ts</title>
<path fill="none" stroke="#000000" stroke-width="2" stroke-opacity="0.200000" d="M107.81,-537.87C115.76,-540.02 123.81,-543.7 129.25,-550 143.96,-567.04 120.13,-585.4 137.25,-600 169.04,-627.11 190.9,-610.82 231.25,-600 286.63,-585.15 337.4,-536.76 360.9,-511.56"/>
<polygon fill="#000000" fill-opacity="0.200000" stroke="#000000" stroke-width="2" stroke-opacity="0.200000" points="362.24,-513.2 364.74,-507.35 359.14,-510.37 362.24,-513.2"/>
</g>
<!-- src/components/works/links.tsx -->
<g id="node16" class="node">
<title>src/components/works/links.tsx</title>
<g id="a_node16"><a xlink:href="src/components/works/links.tsx" xlink:title="links.tsx">
<path fill="#bbfeff" stroke="black" d="M201.33,-391.88C201.33,-391.88 159.17,-391.88 159.17,-391.88 156.21,-391.88 153.25,-388.92 153.25,-385.96 153.25,-385.96 153.25,-380.04 153.25,-380.04 153.25,-377.08 156.21,-374.12 159.17,-374.12 159.17,-374.12 201.33,-374.12 201.33,-374.12 204.29,-374.12 207.25,-377.08 207.25,-380.04 207.25,-380.04 207.25,-385.96 207.25,-385.96 207.25,-388.92 204.29,-391.88 201.33,-391.88"/>
<text text-anchor="start" x="164.12" y="-379.32" font-family="Helvetica,sans-Serif" font-size="9.00">links.tsx</text>
</a>
</g>
</g>
<!-- src/app/works/page.tsx&#45;&gt;src/components/works/links.tsx -->
<g id="edge16" class="edge">
<title>src/app/works/page.tsx&#45;&gt;src/components/works/links.tsx</title>
<path fill="none" stroke="#000000" stroke-width="2" stroke-opacity="0.200000" d="M108.09,-532.42C115.68,-530.54 123.46,-527.35 129.25,-522 164.28,-489.63 174.8,-430.93 177.94,-401.24"/>
<polygon fill="#000000" fill-opacity="0.200000" stroke="#000000" stroke-width="2" stroke-opacity="0.200000" points="180.02,-401.55 178.47,-395.38 175.83,-401.17 180.02,-401.55"/>
</g>
<!-- src/components/works/links.tsx&#45;&gt;src/components/ui/button.tsx -->
<g id="edge23" class="edge">
<title>src/components/works/links.tsx&#45;&gt;src/components/ui/button.tsx</title>
<path fill="none" stroke="#000000" stroke-width="2" stroke-opacity="0.200000" d="M207.68,-391.44C217.71,-394.64 229.29,-398.33 240,-401.75"/>
<polygon fill="#000000" fill-opacity="0.200000" stroke="#000000" stroke-width="2" stroke-opacity="0.200000" points="239.12,-403.67 245.48,-403.5 240.4,-399.67 239.12,-403.67"/>
</g>
<!-- src/components/works/links.tsx&#45;&gt;src/components/ui/card.tsx -->
<g id="edge24" class="edge">
<title>src/components/works/links.tsx&#45;&gt;src/components/ui/card.tsx</title>
<path fill="none" stroke="#000000" stroke-width="2" stroke-opacity="0.200000" d="M186.15,-392.08C194.92,-407.56 214.68,-439.18 239.25,-458 239.88,-458.49 240.54,-458.96 241.21,-459.42"/>
<polygon fill="#000000" fill-opacity="0.200000" stroke="#000000" stroke-width="2" stroke-opacity="0.200000" points="239.95,-461.12 246.19,-462.34 242.08,-457.5 239.95,-461.12"/>
</g>
<!-- src/components/works/links.tsx&#45;&gt;src/components/ui/drawer.tsx -->
<g id="edge26" class="edge">
<title>src/components/works/links.tsx&#45;&gt;src/components/ui/drawer.tsx</title>
<path fill="none" stroke="#000000" stroke-width="2" stroke-opacity="0.200000" d="M191.34,-392.18C202.46,-401.97 221.19,-417.48 239.25,-428 240.35,-428.64 241.48,-429.26 242.63,-429.88"/>
<polygon fill="#000000" fill-opacity="0.200000" stroke="#000000" stroke-width="2" stroke-opacity="0.200000" points="241.4,-431.61 247.71,-432.35 243.24,-427.84 241.4,-431.61"/>
</g>
<!-- src/components/works/links.tsx&#45;&gt;src/components/ui/avatar.tsx -->
<g id="edge25" class="edge">
<title>src/components/works/links.tsx&#45;&gt;src/components/ui/avatar.tsx</title>
<path fill="none" stroke="#000000" stroke-width="2" stroke-opacity="0.200000" d="M207.68,-383C217.51,-383 228.83,-383 239.37,-383"/>
<polygon fill="#000000" fill-opacity="0.200000" stroke="#000000" stroke-width="2" stroke-opacity="0.200000" points="239.33,-385.1 245.33,-383 239.33,-380.9 239.33,-385.1"/>
</g>
<!-- src/components/works/links.tsx&#45;&gt;src/config/iconData.ts -->
<g id="edge27" class="edge">
<title>src/components/works/links.tsx&#45;&gt;src/config/iconData.ts</title>
<path fill="none" stroke="#000000" stroke-width="2" stroke-opacity="0.200000" d="M197.43,-373.64C208.76,-367.56 224.46,-360.02 239.25,-356 297.57,-340.13 314.18,-343 374.62,-343 374.62,-343 374.62,-343 472,-343 530.51,-343 559.84,-316.5 603,-356 637.29,-387.38 647.22,-536.1 649.67,-588.04"/>
<polygon fill="#000000" fill-opacity="0.200000" stroke="#000000" stroke-width="2" stroke-opacity="0.200000" points="647.56,-587.9 649.92,-593.8 651.75,-587.71 647.56,-587.9"/>
</g>
<!-- src/components/works/links.tsx&#45;&gt;src/types/worksType.ts -->
<g id="edge28" class="edge">
<title>src/components/works/links.tsx&#45;&gt;src/types/worksType.ts</title>
<path fill="none" stroke="#000000" stroke-width="2" stroke-opacity="0.200000" d="M202.84,-373.64C213.56,-369.49 226.85,-365.08 239.25,-363 275.19,-356.98 285.17,-357.89 321.25,-363 342.75,-366.05 396.35,-382.37 432.98,-394"/>
<polygon fill="#000000" fill-opacity="0.200000" stroke="#000000" stroke-width="2" stroke-opacity="0.200000" points="432.19,-395.96 438.55,-395.78 433.47,-391.96 432.19,-395.96"/>
</g>
<!-- src/components/ui/avatar.tsx&#45;&gt;src/lib/utils.ts -->
<g id="edge18" class="edge">
<title>src/components/ui/avatar.tsx&#45;&gt;src/lib/utils.ts</title>
<path fill="none" stroke="#000000" stroke-width="2" stroke-opacity="0.200000" d="M304.04,-389.39C310.02,-391.54 316.12,-394.36 321.25,-398 340.25,-411.48 355.84,-433.62 365.16,-448.96"/>
<polygon fill="#000000" fill-opacity="0.200000" stroke="#000000" stroke-width="2" stroke-opacity="0.200000" points="363.31,-449.95 368.15,-454.07 366.93,-447.83 363.31,-449.95"/>
</g>
<!-- src/components/ui/label.tsx -->
<g id="node19" class="node">
<title>src/components/ui/label.tsx</title>
<g id="a_node19"><a xlink:href="src/components/ui/label.tsx" xlink:title="label.tsx">
<path fill="#bbfeff" stroke="black" d="M297.33,-511.88C297.33,-511.88 255.17,-511.88 255.17,-511.88 252.21,-511.88 249.25,-508.92 249.25,-505.96 249.25,-505.96 249.25,-500.04 249.25,-500.04 249.25,-497.08 252.21,-494.12 255.17,-494.12 255.17,-494.12 297.33,-494.12 297.33,-494.12 300.29,-494.12 303.25,-497.08 303.25,-500.04 303.25,-500.04 303.25,-505.96 303.25,-505.96 303.25,-508.92 300.29,-511.88 297.33,-511.88"/>
<text text-anchor="start" x="259.38" y="-499.32" font-family="Helvetica,sans-Serif" font-size="9.00">label.tsx</text>
</a>
</g>
</g>
<!-- src/components/ui/label.tsx&#45;&gt;src/lib/utils.ts -->
<g id="edge22" class="edge">
<title>src/components/ui/label.tsx&#45;&gt;src/lib/utils.ts</title>
<path fill="none" stroke="#000000" stroke-width="2" stroke-opacity="0.200000" d="M303.58,-495.89C309.58,-493.77 315.8,-491.15 321.25,-488 325.34,-485.64 325.15,-483.34 329.25,-481 332.67,-479.05 336.37,-477.31 340.14,-475.76"/>
<polygon fill="#000000" fill-opacity="0.200000" stroke="#000000" stroke-width="2" stroke-opacity="0.200000" points="340.69,-477.8 345.58,-473.74 339.23,-473.86 340.69,-477.8"/>
</g>
<!-- src/types/imgType.ts -->
<g id="node28" class="node">
<title>src/types/imgType.ts</title>
<g id="a_node28"><a xlink:href="src/types/imgType.ts" xlink:title="imgType.ts">
<path fill="#ddfeff" stroke="black" d="M587.21,-384.88C587.21,-384.88 538.79,-384.88 538.79,-384.88 535.83,-384.88 532.88,-381.92 532.88,-378.96 532.88,-378.96 532.88,-373.04 532.88,-373.04 532.88,-370.08 535.83,-367.12 538.79,-367.12 538.79,-367.12 587.21,-367.12 587.21,-367.12 590.17,-367.12 593.12,-370.08 593.12,-373.04 593.12,-373.04 593.12,-378.96 593.12,-378.96 593.12,-381.92 590.17,-384.88 587.21,-384.88"/>
<text text-anchor="start" x="540.88" y="-372.32" font-family="Helvetica,sans-Serif" font-size="9.00">imgType.ts</text>
</a>
</g>
</g>
<!-- src/types/worksType.ts&#45;&gt;src/types/imgType.ts -->
<g id="edge43" class="edge">
<title>src/types/worksType.ts&#45;&gt;src/types/imgType.ts</title>
<path fill="none" stroke="#000000" stroke-width="2" stroke-opacity="0.200000" d="M505.04,-396.71C511.05,-394.9 517.23,-392.95 523,-391 525.38,-390.19 527.84,-389.33 530.3,-388.44"/>
<polygon fill="#000000" fill-opacity="0.200000" stroke="#000000" stroke-width="2" stroke-opacity="0.200000" points="530.87,-390.47 535.76,-386.41 529.41,-386.53 530.87,-390.47"/>
</g>
<!-- src/types/linksType.ts -->
<g id="node29" class="node">
<title>src/types/linksType.ts</title>
<g id="a_node29"><a xlink:href="src/types/linksType.ts" xlink:title="linksType.ts">
<path fill="#ddfeff" stroke="black" d="M589.08,-414.88C589.08,-414.88 536.92,-414.88 536.92,-414.88 533.96,-414.88 531,-411.92 531,-408.96 531,-408.96 531,-403.04 531,-403.04 531,-400.08 533.96,-397.12 536.92,-397.12 536.92,-397.12 589.08,-397.12 589.08,-397.12 592.04,-397.12 595,-400.08 595,-403.04 595,-403.04 595,-408.96 595,-408.96 595,-411.92 592.04,-414.88 589.08,-414.88"/>
<text text-anchor="start" x="539" y="-402.32" font-family="Helvetica,sans-Serif" font-size="9.00">linksType.ts</text>
</a>
</g>
</g>
<!-- src/types/worksType.ts&#45;&gt;src/types/linksType.ts -->
<g id="edge44" class="edge">
<title>src/types/worksType.ts&#45;&gt;src/types/linksType.ts</title>
<path fill="none" stroke="#000000" stroke-width="2" stroke-opacity="0.200000" d="M506.03,-406C511.19,-406 516.56,-406 521.84,-406"/>
<polygon fill="#000000" fill-opacity="0.200000" stroke="#000000" stroke-width="2" stroke-opacity="0.200000" points="521.57,-408.1 527.57,-406 521.57,-403.9 521.57,-408.1"/>
</g>
<!-- src/types/profileType.ts&#45;&gt;src/types/imgType.ts -->
<g id="edge41" class="edge">
<title>src/types/profileType.ts&#45;&gt;src/types/imgType.ts</title>
<path fill="none" stroke="#000000" stroke-width="2" stroke-opacity="0.200000" d="M506.8,-376C512.38,-376 518.18,-376 523.84,-376"/>
<polygon fill="#000000" fill-opacity="0.200000" stroke="#000000" stroke-width="2" stroke-opacity="0.200000" points="523.53,-378.1 529.53,-376 523.53,-373.9 523.53,-378.1"/>
</g>
<!-- src/types/profileType.ts&#45;&gt;src/types/linksType.ts -->
<g id="edge42" class="edge">
<title>src/types/profileType.ts&#45;&gt;src/types/linksType.ts</title>
<path fill="none" stroke="#000000" stroke-width="2" stroke-opacity="0.200000" d="M505.04,-385.29C511.05,-387.1 517.23,-389.05 523,-391 525.38,-391.81 527.84,-392.67 530.3,-393.56"/>
<polygon fill="#000000" fill-opacity="0.200000" stroke="#000000" stroke-width="2" stroke-opacity="0.200000" points="529.41,-395.47 535.76,-395.59 530.87,-391.53 529.41,-395.47"/>
</g>
<!-- src/stories/atom/Avatar/index.stories.tsx -->
<g id="node24" class="node">
<title>src/stories/atom/Avatar/index.stories.tsx</title>
<g id="a_node24"><a xlink:href="src/stories/atom/Avatar/index.stories.tsx" xlink:title="index.stories.tsx">
<path fill="#bbfeff" stroke="black" d="M115.33,-271.88C115.33,-271.88 45.92,-271.88 45.92,-271.88 42.96,-271.88 40,-268.92 40,-265.96 40,-265.96 40,-260.04 40,-260.04 40,-257.08 42.96,-254.12 45.92,-254.12 45.92,-254.12 115.33,-254.12 115.33,-254.12 118.29,-254.12 121.25,-257.08 121.25,-260.04 121.25,-260.04 121.25,-265.96 121.25,-265.96 121.25,-268.92 118.29,-271.88 115.33,-271.88"/>
<text text-anchor="start" x="48" y="-259.32" font-family="Helvetica,sans-Serif" font-size="9.00">index.stories.tsx</text>
</a>
</g>
</g>
<!-- src/stories/atom/Avatar/index.stories.tsx&#45;&gt;src/components/ui/avatar.tsx -->
<g id="edge32" class="edge">
<title>src/stories/atom/Avatar/index.stories.tsx&#45;&gt;src/components/ui/avatar.tsx</title>
<path fill="none" stroke="#000000" stroke-width="2" stroke-opacity="0.200000" d="M81.53,-272.24C81.81,-300.4 86.94,-385.37 137.25,-421 171.35,-445.14 197.2,-445.21 231.25,-421 240.07,-414.73 231.83,-405.88 239.25,-398 239.82,-397.4 240.42,-396.82 241.04,-396.26"/>
<polygon fill="#000000" fill-opacity="0.200000" stroke="#000000" stroke-width="2" stroke-opacity="0.200000" points="242.22,-397.99 245.94,-392.84 239.82,-394.55 242.22,-397.99"/>
</g>
<!-- src/stories/atom/Button/index.stories.tsx -->
<g id="node25" class="node">
<title>src/stories/atom/Button/index.stories.tsx</title>
<g id="a_node25"><a xlink:href="src/stories/atom/Button/index.stories.tsx" xlink:title="index.stories.tsx">
<path fill="#bbfeff" stroke="black" d="M115.33,-211.88C115.33,-211.88 45.92,-211.88 45.92,-211.88 42.96,-211.88 40,-208.92 40,-205.96 40,-205.96 40,-200.04 40,-200.04 40,-197.08 42.96,-194.12 45.92,-194.12 45.92,-194.12 115.33,-194.12 115.33,-194.12 118.29,-194.12 121.25,-197.08 121.25,-200.04 121.25,-200.04 121.25,-205.96 121.25,-205.96 121.25,-208.92 118.29,-211.88 115.33,-211.88"/>
<text text-anchor="start" x="48" y="-199.32" font-family="Helvetica,sans-Serif" font-size="9.00">index.stories.tsx</text>
</a>
</g>
</g>
<!-- src/stories/atom/Button/index.stories.tsx&#45;&gt;src/components/ui/button.tsx -->
<g id="edge33" class="edge">
<title>src/stories/atom/Button/index.stories.tsx&#45;&gt;src/components/ui/button.tsx</title>
<path fill="none" stroke="#000000" stroke-width="2" stroke-opacity="0.200000" d="M98.45,-212.14C109.33,-219.06 122.65,-229.64 129.25,-243 138.01,-260.75 122.94,-407.32 137.25,-421 151.4,-434.53 203.58,-427.56 239.56,-420.73"/>
<polygon fill="#000000" fill-opacity="0.200000" stroke="#000000" stroke-width="2" stroke-opacity="0.200000" points="239.87,-422.81 245.35,-419.59 239.06,-418.69 239.87,-422.81"/>
</g>
<!-- src/stories/atom/Icon/index.stories.tsx -->
<g id="node26" class="node">
<title>src/stories/atom/Icon/index.stories.tsx</title>
<g id="a_node26"><a xlink:href="src/stories/atom/Icon/index.stories.tsx" xlink:title="index.stories.tsx">
<path fill="#bbfeff" stroke="black" d="M115.33,-151.88C115.33,-151.88 45.92,-151.88 45.92,-151.88 42.96,-151.88 40,-148.92 40,-145.96 40,-145.96 40,-140.04 40,-140.04 40,-137.08 42.96,-134.12 45.92,-134.12 45.92,-134.12 115.33,-134.12 115.33,-134.12 118.29,-134.12 121.25,-137.08 121.25,-140.04 121.25,-140.04 121.25,-145.96 121.25,-145.96 121.25,-148.92 118.29,-151.88 115.33,-151.88"/>
<text text-anchor="start" x="48" y="-139.32" font-family="Helvetica,sans-Serif" font-size="9.00">index.stories.tsx</text>
</a>
</g>
</g>
<!-- src/stories/atom/Icon/index.stories.tsx&#45;&gt;src/stories/atom/Icon/index.tsx -->
<g id="edge34" class="edge">
<title>src/stories/atom/Icon/index.stories.tsx&#45;&gt;src/stories/atom/Icon/index.tsx</title>
<path fill="none" stroke="#000000" stroke-width="2" stroke-opacity="0.200000" d="M121.61,-143C129.02,-143 136.7,-143 143.96,-143"/>
<polygon fill="#000000" fill-opacity="0.200000" stroke="#000000" stroke-width="2" stroke-opacity="0.200000" points="143.83,-145.1 149.83,-143 143.83,-140.9 143.83,-145.1"/>
</g>
<!-- src/stories/molecules/HomeLinks/index.stories.tsx -->
<g id="node27" class="node">
<title>src/stories/molecules/HomeLinks/index.stories.tsx</title>
<g id="a_node27"><a xlink:href="src/stories/molecules/HomeLinks/index.stories.tsx" xlink:title="index.stories.tsx">
<path fill="#bbfeff" stroke="black" d="M115.33,-57.88C115.33,-57.88 45.92,-57.88 45.92,-57.88 42.96,-57.88 40,-54.92 40,-51.96 40,-51.96 40,-46.04 40,-46.04 40,-43.08 42.96,-40.12 45.92,-40.12 45.92,-40.12 115.33,-40.12 115.33,-40.12 118.29,-40.12 121.25,-43.08 121.25,-46.04 121.25,-46.04 121.25,-51.96 121.25,-51.96 121.25,-54.92 118.29,-57.88 115.33,-57.88"/>
<text text-anchor="start" x="48" y="-45.33" font-family="Helvetica,sans-Serif" font-size="9.00">index.stories.tsx</text>
</a>
</g>
</g>
<!-- src/stories/molecules/HomeLinks/index.stories.tsx&#45;&gt;src/stories/molecules/HomeLinks/index.tsx -->
<g id="edge36" class="edge">
<title>src/stories/molecules/HomeLinks/index.stories.tsx&#45;&gt;src/stories/molecules/HomeLinks/index.tsx</title>
<path fill="none" stroke="#000000" stroke-width="2" stroke-opacity="0.200000" d="M121.61,-49C129.02,-49 136.7,-49 143.96,-49"/>
<polygon fill="#000000" fill-opacity="0.200000" stroke="#000000" stroke-width="2" stroke-opacity="0.200000" points="143.83,-51.1 149.83,-49 143.83,-46.9 143.83,-51.1"/>
</g>
<!-- src/types/linksType.ts&#45;&gt;src/config/iconData.ts -->
<g id="edge40" class="edge">
<title>src/types/linksType.ts&#45;&gt;src/config/iconData.ts</title>
<path fill="none" stroke="#000000" stroke-width="2" stroke-opacity="0.200000" d="M567.94,-415.11C581.31,-446.09 625.18,-547.66 642.87,-588.63"/>
<polygon fill="#000000" fill-opacity="0.200000" stroke="#000000" stroke-width="2" stroke-opacity="0.200000" points="640.91,-589.38 645.22,-594.05 644.76,-587.71 640.91,-589.38"/>
</g>
</g>
</svg>
